# xmcd
#
# Track frame offsets:
# 150
# 11831
# 22093
# 32987
# 47345
# 58941
# 69817
# 82485
# 94938
# 106555
# 120151
# 134154
# 148273
# 160012
# 173550
# 185084
#
# Disc length: 2653 seconds
#
#
# Revision: 1
# Processed by: cddbd v1.5.1PL2 Copyright (c) Steve Scherf et al.
# Submitted via: FreeRIP 2.944 
#
DISCID=de0a5b10
DTITLE=Muddy Waters - I Can't Be Satisfied [CD 3)
DYEAR=2005
DGENRE=Blues
TTITLE0=You're Gonna Miss Me
TTITLE1=Mean Red Spider
TTITLE2=Standin' Here Tremblin'
TTITLE3=Streamlined Woman
TTITLE4=Hard Days
TTITLE5=Muddy Jumps One (1948)
TTITLE6=Little Geneva
TTITLE7=Canary Bird
TTITLE8=Burying Ground
TTITLE9=You're Gonna Need My Help (1949)
TTITLE10=Screaming And Crying
TTITLE11=Where's My Woman Been
TTITLE12=Last Time I Fool Around With You (1949)
TTITLE13=Rollin' And Tumblin' - Part 1
TTITLE14=Rollin' And Tumblin' -  Part 2
TTITLE15=Rollin' Stone (1950)
EXTD=Quadromania\nMembran Music Ltd\n24 Bit - 96 kHz
EXTT0=
EXTT1=
EXTT2=
EXTT3=
EXTT4=
EXTT5=
EXTT6=
EXTT7=
EXTT8=
EXTT9=
EXTT10=
EXTT11=
EXTT12=
EXTT13=
EXTT14=
EXTT15=
PLAYORDER=
